<?xml version="1.0" encoding="iso-8859-1"?>
<!-- Generator: Adobe Illustrator 19.0.0, SVG Export Plug-In . SVG Version: 6.00 Build 0)  -->
<svg version="1.1" id="Capa_1" xmlns="http://www.w3.org/2000/svg" xmlns:xlink="http://www.w3.org/1999/xlink" x="0px" y="0px"
	 viewBox="0 0 468.293 468.293" style="enable-background:new 0 0 468.293 468.293;" xml:space="preserve">
<path style="fill:#EBF0F3;" d="M322.253,384.109H146.04c7.122,22.093,75.858,46.864,7.801,74.83h160.611
	C246.395,430.972,315.131,406.202,322.253,384.109z"/>
<path style="fill:#2F4859;" d="M0,343.676V42.089C0,24.01,14.656,9.354,32.736,9.354h402.822c18.079,0,32.736,14.656,32.736,32.736
	v301.587H0z"/>
<rect x="33.592" y="39.93" style="fill:#27A2DB;" width="401.108" height="273.171"/>
<path style="fill:#EBF0F3;" d="M0,336.365v29.001c0,13.979,11.332,25.311,25.311,25.311h417.671
	c13.979,0,25.311-11.332,25.311-25.311v-29.001H0z"/>
<circle style="fill:#D5D6DB;" cx="234.146" cy="363.52" r="17.164"/>
<g>
	<path style="fill:#FFFFFF;" d="M92.697,73.719c2.208-2.208,2.208-5.787,0-7.995c-2.208-2.208-5.787-2.208-7.995,0L59.385,91.041
		c-2.208,2.208-2.208,5.787,0,7.995c2.208,2.208,5.787,2.208,7.995,0L92.697,73.719z"/>
	<path style="fill:#FFFFFF;" d="M116.53,72.722c-2.208-2.208-5.787-2.208-7.995,0l-42.151,42.151c-2.208,2.208-2.208,5.787,0,7.995
		c2.208,2.208,5.787,2.208,7.995,0l42.151-42.151C118.738,78.51,118.738,74.93,116.53,72.722z"/>
</g>
<polygon style="fill:#EBF0F3;" points="360.382,198.555 253.945,163.076 289.424,269.513 303.564,226.287 337.296,260.019 
	350.887,246.427 317.155,212.695 "/>
<g>
</g>
<g>
</g>
<g>
</g>
<g>
</g>
<g>
</g>
<g>
</g>
<g>
</g>
<g>
</g>
<g>
</g>
<g>
</g>
<g>
</g>
<g>
</g>
<g>
</g>
<g>
</g>
<g>
</g>
</svg>
